<?xml version="1.0" encoding="iso-8859-1"?>
<!-- Generator: Adobe Illustrator 21.1.0, SVG Export Plug-In . SVG Version: 6.00 Build 0)  -->
<svg xmlns="http://www.w3.org/2000/svg" xmlns:xlink="http://www.w3.org/1999/xlink" version="1.1" id="Layer_1" x="0px" y="0px" viewBox="0 0 40 40" style="enable-background:new 0 0 40 40;" xml:space="preserve">
<rect x="16" y="2" style="fill:#4E7AB5;" width="2" height="36"/>
<rect x="22" y="2" style="fill:#4E7AB5;" width="2" height="36"/>
<g>
	<polygon style="fill:#8BB7F0;" points="1.748,20 10.5,12.123 10.5,17.5 16.5,17.5 16.5,22.5 10.5,22.5 10.5,27.877  "/>
	<g>
		<path style="fill:#4E7AB5;" d="M10,13.245V17v1h1h5v4h-5h-1v1v3.755L2.495,20L10,13.245 M11,11L1,20l10,9v-6h6v-6h-6V11L11,11z"/>
	</g>
</g>
<g>
	<polygon style="fill:#8BB7F0;" points="29.5,22.5 23.5,22.5 23.5,17.5 29.5,17.5 29.5,12.123 38.252,20 29.5,27.877  "/>
	<g>
		<path style="fill:#4E7AB5;" d="M30,13.245L37.505,20L30,26.755V23v-1h-1h-5v-4h5h1v-1V13.245 M29,11v6h-6v6h6v6l10-9L29,11L29,11z    "/>
	</g>
</g>
</svg>
