<?xml version="1.0" encoding="iso-8859-1"?>
<!-- Generator: Adobe Illustrator 21.1.0, SVG Export Plug-In . SVG Version: 6.00 Build 0)  -->
<svg xmlns="http://www.w3.org/2000/svg" xmlns:xlink="http://www.w3.org/1999/xlink" version="1.1" id="Layer_1" x="0px" y="0px" viewBox="0 0 40 40" style="enable-background:new 0 0 40 40;" xml:space="preserve">
<rect x="2" y="22" style="fill:#4E7AB5;" width="36" height="2"/>
<rect x="2" y="16" style="fill:#4E7AB5;" width="36" height="2"/>
<g>
	<polygon style="fill:#8BB7F0;" points="12.123,29.5 17.5,29.5 17.5,23.5 22.5,23.5 22.5,29.5 27.877,29.5 20,38.252  "/>
	<g>
		<path style="fill:#4E7AB5;" d="M22,24v5v1h1h3.755L20,37.505L13.245,30H17h1v-1v-5H22 M23,23h-6v6h-6l9,10l9-10h-6V23L23,23z"/>
	</g>
</g>
<g>
	<polygon style="fill:#8BB7F0;" points="17.5,16.5 17.5,10.5 12.123,10.5 20,1.748 27.877,10.5 22.5,10.5 22.5,16.5  "/>
	<g>
		<path style="fill:#4E7AB5;" d="M20,2.495L26.755,10H23h-1v1v5h-4v-5v-1h-1h-3.755L20,2.495 M20,1l-9,10h6v6h6v-6h6L20,1L20,1z"/>
	</g>
</g>
</svg>
