<svg id="Capa_1" enable-background="new 0 0 512 512" height="512" viewBox="0 0 512 512" width="512" xmlns="http://www.w3.org/2000/svg" xmlns:xlink="http://www.w3.org/1999/xlink"><linearGradient id="SVGID_1_" gradientUnits="userSpaceOnUse" x1="256" x2="256" y1="512" y2="0"><stop offset="0" stop-color="#addcff"/><stop offset=".5028" stop-color="#eaf6ff"/><stop offset="1" stop-color="#eaf6ff"/></linearGradient><linearGradient id="SVGID_2_" gradientUnits="userSpaceOnUse" x1="256" x2="256" y1="318" y2="194"><stop offset="0" stop-color="#00c0ff"/><stop offset="1" stop-color="#5558ff"/></linearGradient><g><g><circle cx="256" cy="256" fill="url(#SVGID_1_)" r="256"/></g><g><g><path d="m403.447 248.916-71.06-53.143c-2.993-2.249-7.096-2.37-10.236-.294s-4.623 5.89-3.704 9.523l6.115 24.426h-210.68c-4.91 0-8.882 3.961-8.882 8.857v35.429c0 4.896 3.973 8.857 8.882 8.857h210.681l-6.115 24.426c-.919 3.633.564 7.447 3.704 9.523 3.155 2.085 7.246 1.946 10.236-.294l71.06-53.143c4.739-3.536 4.733-10.636-.001-14.167z" fill="url(#SVGID_2_)"/></g></g></g></svg>