<svg id="Capa_1" enable-background="new 0 0 512 512" height="512" viewBox="0 0 512 512" width="512" xmlns="http://www.w3.org/2000/svg" xmlns:xlink="http://www.w3.org/1999/xlink"><linearGradient id="SVGID_1_" gradientUnits="userSpaceOnUse" x1="256" x2="256" y1="512" y2="0"><stop offset="0" stop-color="#ffe59a"/><stop offset="1" stop-color="#ffffd5"/></linearGradient><linearGradient id="SVGID_2_" gradientUnits="userSpaceOnUse" x1="256" x2="256" y1="318" y2="194"><stop offset="0" stop-color="#ffde00"/><stop offset="1" stop-color="#fd5900"/></linearGradient><g><g><circle cx="256" cy="256" fill="url(#SVGID_1_)" r="256"/></g><g><g><path d="m398.118 229.428h-210.681l6.115-24.426c.919-3.633-.564-7.447-3.704-9.523s-7.243-1.955-10.236.294l-71.06 53.143c-4.741 3.536-4.735 10.636 0 14.168l71.06 53.143c2.99 2.241 7.081 2.379 10.236.294 3.14-2.076 4.623-5.89 3.704-9.523l-6.115-24.426h210.681c4.91 0 8.882-3.962 8.882-8.857v-35.429c0-4.896-3.973-8.858-8.882-8.858z" fill="url(#SVGID_2_)"/></g></g></g></svg>