<svg id="Capa_1" enable-background="new 0 0 512 512" height="512" viewBox="0 0 512 512" width="512" xmlns="http://www.w3.org/2000/svg" xmlns:xlink="http://www.w3.org/1999/xlink"><linearGradient id="SVGID_1_" gradientUnits="userSpaceOnUse" x1="256" x2="256" y1="512" y2="0"><stop offset="0" stop-color="#ffc2cc"/><stop offset="1" stop-color="#fff2f4"/></linearGradient><linearGradient id="SVGID_2_" gradientUnits="userSpaceOnUse" x1="256" x2="256" y1="407" y2="105"><stop offset="0" stop-color="#ffa68d"/><stop offset="1" stop-color="#fd3a84"/></linearGradient><g><g><circle cx="256" cy="256" fill="url(#SVGID_1_)" r="256"/></g><g><g><path d="m316.521 322.151c-2.076-3.14-5.882-4.615-9.523-3.704l-24.427 6.115v-210.68c0-4.91-3.962-8.882-8.857-8.882h-35.429c-4.896 0-8.857 3.973-8.857 8.882v210.68l-24.427-6.115c-3.615-.911-7.439.564-9.523 3.704-2.076 3.131-1.955 7.234.294 10.236l53.143 71.06c3.536 4.741 10.636 4.735 14.168 0l53.143-71.06c2.25-3.001 2.371-7.104.295-10.236z" fill="url(#SVGID_2_)"/></g></g></g></svg>