<svg id="Capa_1" enable-background="new 0 0 512 512" height="512" viewBox="0 0 512 512" width="512" xmlns="http://www.w3.org/2000/svg" xmlns:xlink="http://www.w3.org/1999/xlink"><linearGradient id="SVGID_1_" gradientUnits="userSpaceOnUse" x1="256" x2="256" y1="512" y2="0"><stop offset="0" stop-color="#c3ffe8"/><stop offset=".9973" stop-color="#f0fff4"/></linearGradient><linearGradient id="SVGID_2_" gradientUnits="userSpaceOnUse" x1="256" x2="256" y1="407" y2="105"><stop offset="0" stop-color="#9cffac"/><stop offset="1" stop-color="#00b59c"/></linearGradient><g><g><circle cx="256" cy="256" fill="url(#SVGID_1_)" r="256"/></g><g><g><path d="m306.998 318.389-24.427 6.119v-137.213l24.427 6.119c3.659.964 7.456-.564 9.523-3.706 2.076-3.133 1.955-7.239-.294-10.242l-53.144-71.107c-3.339-4.479-10.829-4.479-14.168 0l-53.144 71.107c-2.249 3.003-2.37 7.109-.294 10.242 2.076 3.142 5.882 4.67 9.523 3.706l24.427-6.119v137.213l-24.427-6.119c-3.641-.911-7.447.564-9.523 3.706-2.076 3.133-1.955 7.239.294 10.242l53.144 71.107c3.536 4.744 10.636 4.738 14.168 0l53.144-71.107c2.249-3.003 2.37-7.109.294-10.242-2.067-3.142-5.864-4.617-9.523-3.706z" fill="url(#SVGID_2_)"/></g></g></g></svg>