<svg id="Capa_1" enable-background="new 0 0 512 512" height="512" viewBox="0 0 512 512" width="512" xmlns="http://www.w3.org/2000/svg" xmlns:xlink="http://www.w3.org/1999/xlink"><linearGradient id="SVGID_1_" gradientUnits="userSpaceOnUse" x1="256" x2="256" y1="512" y2="0"><stop offset="0" stop-color="#c3ffe8"/><stop offset=".9973" stop-color="#f0fff4"/></linearGradient><linearGradient id="SVGID_2_" gradientUnits="userSpaceOnUse" x1="256" x2="256" y1="318" y2="194"><stop offset="0" stop-color="#9cffac"/><stop offset="1" stop-color="#00b59c"/></linearGradient><g><g><circle cx="256" cy="256" fill="url(#SVGID_1_)" r="256"/></g><g><g><path d="m403.447 248.916-71.06-53.143c-2.993-2.249-7.096-2.361-10.236-.294-3.14 2.076-4.623 5.89-3.704 9.523l6.115 24.426h-37.612c-14.754-21.978-39.77-35.428-66.478-35.428s-51.725 13.45-66.48 35.429h-40.11c-4.91 0-8.882 3.961-8.882 8.857v35.429c0 4.896 3.973 8.857 8.882 8.857h71.06c4.91 0 8.882-3.961 8.882-8.857 0-14.652 11.953-26.571 26.647-26.571s26.647 11.919 26.647 26.571c0 4.896 3.973 8.857 8.882 8.857h68.561l-6.115 24.426c-.919 3.633.564 7.447 3.704 9.523 3.155 2.085 7.246 1.946 10.236-.294l71.06-53.143c4.741-3.536 4.735-10.636.001-14.168z" fill="url(#SVGID_2_)"/></g></g></g></svg>