<svg id="Capa_1" enable-background="new 0 0 512 512" height="512" viewBox="0 0 512 512" width="512" xmlns="http://www.w3.org/2000/svg" xmlns:xlink="http://www.w3.org/1999/xlink"><linearGradient id="SVGID_1_" gradientUnits="userSpaceOnUse" x1="256" x2="256" y1="512" y2="0"><stop offset="0" stop-color="#ffbef9"/><stop offset="1" stop-color="#fff1ff"/></linearGradient><linearGradient id="SVGID_2_" gradientUnits="userSpaceOnUse" x1="256" x2="256" y1="407" y2="105"><stop offset="0" stop-color="#ff81ff"/><stop offset="1" stop-color="#a93aff"/></linearGradient><g><g><circle cx="256" cy="256" fill="url(#SVGID_1_)" r="256"/></g><g><g><path d="m316.227 179.465-53.143-71.106c-3.339-4.479-10.829-4.479-14.168 0l-53.143 71.106c-2.249 3.003-2.37 7.109-.294 10.242 2.076 3.142 5.899 4.635 9.523 3.706l24.427-6.119v139.712c0 4.913 3.961 8.888 8.857 8.888h35.429c4.896 0 8.857-3.975 8.857-8.888v-139.712l24.427 6.119c3.633.929 7.447-.564 9.523-3.706 2.075-3.133 1.954-7.239-.295-10.242zm-42.513 209.759h-35.429c-4.896 0-8.857 3.975-8.857 8.888s3.962 8.888 8.858 8.888h35.429c4.896 0 8.857-3.975 8.857-8.888s-3.962-8.888-8.858-8.888zm0-35.553h-35.429c-4.896 0-8.857 3.975-8.857 8.888s3.961 8.888 8.857 8.888h35.429c4.896 0 8.857-3.975 8.857-8.888s-3.961-8.888-8.857-8.888z" fill="url(#SVGID_2_)"/></g></g></g></svg>