<svg id="Capa_1" enable-background="new 0 0 512 512" height="512" viewBox="0 0 512 512" width="512" xmlns="http://www.w3.org/2000/svg" xmlns:xlink="http://www.w3.org/1999/xlink"><linearGradient id="SVGID_1_" gradientUnits="userSpaceOnUse" x1="256" x2="256" y1="512" y2="0"><stop offset="0" stop-color="#addcff"/><stop offset=".5028" stop-color="#eaf6ff"/><stop offset="1" stop-color="#eaf6ff"/></linearGradient><linearGradient id="SVGID_2_" gradientUnits="userSpaceOnUse" x1="255.999" x2="255.999" y1="407" y2="105"><stop offset="0" stop-color="#00c0ff"/><stop offset="1" stop-color="#5558ff"/></linearGradient><g><g><circle cx="256" cy="256" fill="url(#SVGID_1_)" r="256"/></g><g><g><path d="m405.221 179.615-53.294-71.059c-3.348-4.476-10.86-4.476-14.208 0l-53.294 71.059c-2.255 3.001-2.377 7.104-.295 10.236 2.082 3.14 5.916 4.632 9.55 3.704l24.496-6.115v121.855c0 24.487-19.925 44.412-44.412 44.412h-35.53c-4.909 0-8.882 3.973-8.882 8.882v35.53c0 4.91 3.973 8.882 8.882 8.882h35.53c53.875 0 97.706-43.831 97.706-97.706v-121.856l24.496 6.115c3.643.928 7.469-.564 9.55-3.704 2.082-3.131 1.961-7.234-.295-10.235zm-186.902 138.83-24.496 6.115v-121.854c0-24.487 19.925-44.412 44.412-44.412h35.53c4.91 0 8.882-3.973 8.882-8.882v-35.529c0-4.91-3.973-8.882-8.882-8.882h-35.53c-53.875 0-97.706 43.831-97.706 97.706v121.855l-24.496-6.115c-3.617-.945-7.46.572-9.55 3.704-2.082 3.131-1.96 7.234.295 10.236l53.294 71.059c3.546 4.741 10.667 4.735 14.208 0l53.294-71.059c2.255-3.001 2.377-7.104.295-10.236-2.082-3.133-5.89-4.651-9.55-3.706z" fill="url(#SVGID_2_)"/></g></g></g></svg>