<svg id="Capa_1" enable-background="new 0 0 512 512" height="512" viewBox="0 0 512 512" width="512" xmlns="http://www.w3.org/2000/svg" xmlns:xlink="http://www.w3.org/1999/xlink"><linearGradient id="SVGID_1_" gradientUnits="userSpaceOnUse" x1="256" x2="256" y1="512" y2="0"><stop offset="0" stop-color="#ffe59a"/><stop offset="1" stop-color="#ffffd5"/></linearGradient><linearGradient id="SVGID_2_" gradientUnits="userSpaceOnUse" x1="255.998" x2="255.998" y1="407" y2="105"><stop offset="0" stop-color="#ffde00"/><stop offset="1" stop-color="#fd5900"/></linearGradient><g><g><circle cx="256" cy="256" fill="url(#SVGID_1_)" r="256"/></g><g><g><path d="m396.854 105.089-87.936 12.612c-3.721.538-6.705 3.357-7.451 7.043-.737 3.686.919 7.442 4.146 9.376l21.676 12.976-180.192 180.192-12.976-21.676c-1.943-3.235-5.716-4.849-9.376-4.146-3.686.746-6.505 3.73-7.043 7.451l-12.612 87.936c-.831 5.888 4.234 10.902 10.053 10.053l87.936-12.612c3.721-.538 6.705-3.357 7.451-7.043.737-3.686-.919-7.442-4.146-9.376l-21.676-12.976 180.191-180.192 12.976 21.676c1.943 3.218 5.716 4.84 9.376 4.146 3.687-.746 6.506-3.73 7.043-7.451l12.612-87.936c.829-5.871-4.185-10.876-10.052-10.053z" fill="url(#SVGID_2_)"/></g></g></g></svg>