<svg id="Capa_1" enable-background="new 0 0 512 512" height="512" viewBox="0 0 512 512" width="512" xmlns="http://www.w3.org/2000/svg" xmlns:xlink="http://www.w3.org/1999/xlink"><linearGradient id="SVGID_1_" gradientUnits="userSpaceOnUse" x1="256" x2="256" y1="512" y2="0"><stop offset="0" stop-color="#ffc2cc"/><stop offset="1" stop-color="#fff2f4"/></linearGradient><linearGradient id="SVGID_2_" gradientUnits="userSpaceOnUse" x1="256" x2="256" y1="407" y2="105"><stop offset="0" stop-color="#ffa68d"/><stop offset="1" stop-color="#fd3a84"/></linearGradient><g><g><circle cx="256" cy="256" fill="url(#SVGID_1_)" r="256"/></g><g><g><path d="m192.158 108.556c-3.342-4.476-10.841-4.476-14.183 0l-53.2 71.059c-2.251 3.001-2.373 7.104-.294 10.236 2.078 3.14 5.906 4.632 9.534 3.704l24.453-6.115v210.678c0 4.91 3.966 8.882 8.867 8.882h35.465c4.901 0 8.867-3.973 8.867-8.882v-210.679l24.453 6.115c3.637.928 7.455-.564 9.533-3.704 2.078-3.131 1.957-7.234-.294-10.236zm195.362 213.593c-2.078-3.131-5.888-4.649-9.534-3.704l-24.453 6.115v-210.678c0-4.91-3.966-8.882-8.867-8.882h-35.466c-4.901 0-8.867 3.973-8.867 8.882v210.678l-24.453-6.115c-3.619-.945-7.455.572-9.533 3.704-2.078 3.131-1.957 7.234.294 10.236l53.2 71.059c3.54 4.741 10.648 4.735 14.183 0l53.2-71.059c2.253-3.002 2.374-7.104.296-10.236z" fill="url(#SVGID_2_)"/></g></g></g></svg>