<svg id="Capa_1" enable-background="new 0 0 512 512" height="512" viewBox="0 0 512 512" width="512" xmlns="http://www.w3.org/2000/svg" xmlns:xlink="http://www.w3.org/1999/xlink"><linearGradient id="SVGID_1_" gradientUnits="userSpaceOnUse" x1="256" x2="256" y1="512" y2="0"><stop offset="0" stop-color="#ffe59a"/><stop offset="1" stop-color="#ffffd5"/></linearGradient><linearGradient id="SVGID_2_" gradientUnits="userSpaceOnUse" x1="256.001" x2="256.001" y1="407" y2="105"><stop offset="0" stop-color="#ffde00"/><stop offset="1" stop-color="#fd5900"/></linearGradient><g><g><circle cx="256" cy="256" fill="url(#SVGID_1_)" r="256"/></g><g><g><path d="m363.977 150.375c-27.502-27.494-66.953-45.375-108.522-45.375-35.738 0-70.738 13.133-97.749 36.406l-13.237-22.067c-1.926-3.218-5.69-4.884-9.377-4.138s-6.497 3.73-7.035 7.451l-12.56 87.93c-.815 5.78 4.086 10.88 10.053 10.053l87.93-12.56c3.721-.538 6.705-3.348 7.451-7.035s-.919-7.443-4.138-9.377l-20.974-12.586c28.654-22.441 58.711-20.477 60.494-20.783 33.187 0 55.228 15.058 67.875 27.705 18.545 18.545 29.579 44.707 29.518 69.974-.018 4.893 3.951 8.908 8.882 8.908h35.529c4.892 0 8.865-3.955 8.882-8.848.158-40.819-14.718-77.346-43.022-105.658zm22.501 141.068-87.93 12.56c-3.721.538-6.705 3.348-7.451 7.035s.911 7.442 4.138 9.377l20.905 12.543c-28.586 22.381-58.672 20.444-60.45 20.749-33.187 0-55.228-15.058-67.875-27.705-18.545-18.545-29.579-44.707-29.518-69.974.018-4.893-3.951-8.908-8.882-8.908h-35.529c-4.892 0-8.865 3.955-8.882 8.848-.156 40.821 14.72 77.348 43.024 105.66 27.191 27.183 64.279 44.391 108.523 45.375 35.729 0 70.721-13.133 97.732-36.388l13.28 22.128c1.934 3.209 5.656 4.823 9.377 4.138 3.687-.746 6.497-3.73 7.035-7.451l12.56-87.93c.818-5.824-4.184-10.935-10.057-10.057z" fill="url(#SVGID_2_)"/></g></g></g></svg>