<svg id="Capa_1" enable-background="new 0 0 512 512" height="512" viewBox="0 0 512 512" width="512" xmlns="http://www.w3.org/2000/svg" xmlns:xlink="http://www.w3.org/1999/xlink"><linearGradient id="SVGID_1_" gradientUnits="userSpaceOnUse" x1="256" x2="256" y1="512" y2="0"><stop offset="0" stop-color="#ffc2cc"/><stop offset="1" stop-color="#fff2f4"/></linearGradient><linearGradient id="SVGID_2_" gradientUnits="userSpaceOnUse" x1="255.983" x2="255.983" y1="407" y2="105"><stop offset="0" stop-color="#ffa68d"/><stop offset="1" stop-color="#fd3a84"/></linearGradient><g><g><circle cx="256" cy="256" fill="url(#SVGID_1_)" r="256"/></g><g><g><path d="m255.437 105c-35.733 0-70.729 13.131-97.737 36.401l-13.235-22.064c-1.925-3.218-5.655-4.883-9.376-4.137-3.686.746-6.496 3.729-7.034 7.45l-12.559 87.92c-.823 5.83 4.143 10.875 10.052 10.052l87.919-12.559c3.721-.538 6.704-3.348 7.45-7.034s-.919-7.442-4.137-9.376l-20.98-12.585c28.644-22.447 58.712-20.475 60.495-20.781 57.4 0 97.501 48.088 97.382 97.72.116 48.462-38.586 97.668-98.006 97.668-57.394 0-97.501-48.073-97.382-97.668.018-4.892-3.951-8.907-8.881-8.907h-35.525c-4.892 0-8.864 3.955-8.881 8.847-.344 88.699 73.775 151.016 150.435 151.016 73.437 1.749 151.879-59.438 151.528-150.947.296-76.573-56.325-146.689-151.528-151.016z" fill="url(#SVGID_2_)"/></g></g></g></svg>