<svg id="Capa_1" enable-background="new 0 0 512 512" height="512" viewBox="0 0 512 512" width="512" xmlns="http://www.w3.org/2000/svg" xmlns:xlink="http://www.w3.org/1999/xlink"><linearGradient id="SVGID_1_" gradientUnits="userSpaceOnUse" x1="256" x2="256" y1="512" y2="0"><stop offset="0" stop-color="#c3ffe8"/><stop offset=".9973" stop-color="#f0fff4"/></linearGradient><linearGradient id="SVGID_2_" gradientUnits="userSpaceOnUse" x1="256" x2="256" y1="407" y2="105"><stop offset="0" stop-color="#9cffac"/><stop offset="1" stop-color="#00b59c"/></linearGradient><g><g><circle cx="256" cy="256" fill="url(#SVGID_1_)" r="256"/></g><g><g><path d="m403.447 266.568-71.06-53.329c-3.01-2.248-7.096-2.37-10.236-.295-3.14 2.083-4.623 5.911-3.704 9.557l6.15 24.634c-7.503.26-15.614 1.033-23.369 3.411-6.497 1.805-12.708 4.227-18.58 7.248v-70.498l24.496 6.119c3.652.937 7.469-.573 9.55-3.706 2.082-3.134 1.96-7.239-.295-10.242l-53.295-71.106c-3.348-4.479-10.86-4.479-14.208 0l-53.296 71.104c-2.255 3.003-2.377 7.109-.295 10.242 2.09 3.133 5.925 4.644 9.55 3.706l24.496-6.119v70.49c-5.846-3.003-11.997-5.408-18.372-7.178-7.885-2.413-15.805-3.212-23.577-3.472l6.15-24.634c.919-3.646-.564-7.473-3.704-9.557-3.14-2.074-7.226-1.953-10.236.295l-71.06 53.329c-4.741 3.549-4.735 10.674 0 14.218l71.06 53.329c3.01 2.248 7.096 2.378 10.236.295s4.623-5.911 3.704-9.557l-6.098-24.417c2.949.174 5.838.599 9.203 1.545 3.34.911 32.694 9.852 32.694 44.224v51.906c0 4.913 3.973 8.888 8.883 8.888h35.53c4.91 0 8.883-3.975 8.883-8.888v-51.906c0-34.39 29.345-43.313 32.789-44.242 3.313-.937 6.176-1.354 9.108-1.536l-6.098 24.425c-.919 3.646.564 7.473 3.704 9.557s7.226 1.953 10.236-.295l71.06-53.329c4.742-3.547 4.735-10.672.001-14.216z" fill="url(#SVGID_2_)"/></g></g></g></svg>