<svg id="Capa_1" enable-background="new 0 0 512 512" height="512" viewBox="0 0 512 512" width="512" xmlns="http://www.w3.org/2000/svg" xmlns:xlink="http://www.w3.org/1999/xlink"><linearGradient id="SVGID_1_" gradientUnits="userSpaceOnUse" x1="256" x2="256" y1="512" y2="0"><stop offset="0" stop-color="#addcff"/><stop offset=".5028" stop-color="#eaf6ff"/><stop offset="1" stop-color="#eaf6ff"/></linearGradient><linearGradient id="SVGID_2_" gradientUnits="userSpaceOnUse" x1="255.999" x2="255.999" y1="407" y2="105"><stop offset="0" stop-color="#00c0ff"/><stop offset="1" stop-color="#5558ff"/></linearGradient><g><g><circle cx="256" cy="256" fill="url(#SVGID_1_)" r="256"/></g><g><g><path d="m403.444 160.069-71.06-53.295c-2.984-2.255-7.104-2.368-10.236-.295-3.14 2.082-4.624 5.907-3.704 9.55l6.15 24.635c-7.46.26-15.553 1.041-23.334 3.392-17.21 4.658-32.954 14.174-45.262 27.22-12.3-13.037-28.009-22.553-45.02-27.151-7.885-2.385-15.874-3.183-23.585-3.452l6.159-24.644c.919-3.643-.564-7.469-3.704-9.55-3.14-2.073-7.243-1.96-10.236.295l-71.06 53.295c-4.741 3.546-4.735 10.667 0 14.208l71.06 53.295c2.993 2.255 7.095 2.377 10.236.295 3.14-2.082 4.624-5.907 3.704-9.55l-6.081-24.357c2.949.182 5.846.599 9.247 1.518 20.246 5.456 32.138 22.154 32.633 45.635v157.005c0 4.91 3.973 8.883 8.882 8.883h35.53c4.91 0 8.883-3.973 8.883-8.883v-156.91c.521-23.62 12.413-40.292 32.633-45.731 3.392-.92 6.298-1.327 9.247-1.518l-6.081 24.357c-.92 3.643.564 7.469 3.704 9.55 3.131 2.082 7.252 1.96 10.236-.295l71.06-53.295c4.74-3.545 4.734-10.665-.001-14.207z" fill="url(#SVGID_2_)"/></g></g></g></svg>