<svg id="Capa_1" enable-background="new 0 0 512 512" height="512" viewBox="0 0 512 512" width="512" xmlns="http://www.w3.org/2000/svg" xmlns:xlink="http://www.w3.org/1999/xlink"><linearGradient id="SVGID_1_" gradientUnits="userSpaceOnUse" x1="256" x2="256" y1="512" y2="0"><stop offset="0" stop-color="#ffbef9"/><stop offset="1" stop-color="#fff1ff"/></linearGradient><linearGradient id="SVGID_2_" gradientUnits="userSpaceOnUse" x1="256" x2="256" y1="407" y2="105"><stop offset="0" stop-color="#ff81ff"/><stop offset="1" stop-color="#a93aff"/></linearGradient><g><g><circle cx="256" cy="256" fill="url(#SVGID_1_)" r="256"/></g><g><g><path d="m191.918 108.359c-3.355-4.479-10.882-4.479-14.237 0l-53.4 71.106c-2.26 3.003-2.382 7.109-.296 10.242s5.927 4.644 9.569 3.706l24.545-6.119v210.818c0 4.913 3.981 8.888 8.9 8.888h35.6c4.919 0 8.9-3.975 8.9-8.888v-210.818l24.545 6.119c3.65.937 7.483-.573 9.569-3.706 2.086-3.134 1.964-7.239-.295-10.242zm195.801 71.106-53.4-71.106c-3.355-4.479-10.882-4.479-14.237 0l-53.4 71.106c-2.26 3.003-2.381 7.109-.295 10.242s5.936 4.644 9.569 3.706l24.545-6.119v210.818c0 4.913 3.981 8.888 8.9 8.888h35.599c4.919 0 8.9-3.975 8.9-8.888v-210.818l24.545 6.119c3.659.937 7.483-.573 9.569-3.706s1.965-7.239-.295-10.242z" fill="url(#SVGID_2_)"/></g></g></g></svg>