<svg id="Capa_1" enable-background="new 0 0 512 512" height="512" viewBox="0 0 512 512" width="512" xmlns="http://www.w3.org/2000/svg" xmlns:xlink="http://www.w3.org/1999/xlink"><linearGradient id="SVGID_1_" gradientUnits="userSpaceOnUse" x1="256" x2="256" y1="512" y2="0"><stop offset="0" stop-color="#addcff"/><stop offset=".5028" stop-color="#eaf6ff"/><stop offset="1" stop-color="#eaf6ff"/></linearGradient><linearGradient id="SVGID_2_" gradientUnits="userSpaceOnUse" x1="256" x2="256" y1="407" y2="105"><stop offset="0" stop-color="#00c0ff"/><stop offset="1" stop-color="#5558ff"/></linearGradient><g><g><circle cx="256" cy="256" fill="url(#SVGID_1_)" r="256"/></g><g><g><path d="m360.724 179.465-53.251-71.106c-3.346-4.479-10.851-4.479-14.197 0l-53.251 71.106c-2.253 3.003-2.375 7.109-.295 10.242 2.08 3.142 5.92 4.652 9.543 3.706l24.476-6.119v70.49c-5.842-3.003-11.987-5.408-18.357-7.178-7.8-2.387-15.87-3.194-23.557-3.463l6.145-24.642c.919-3.646-.563-7.474-3.701-9.557-3.129-2.083-7.246-1.962-10.227.295l-71.001 53.33c-4.737 3.549-4.731 10.673 0 14.218l71.001 53.329c2.981 2.248 7.098 2.37 10.227.295 3.137-2.083 4.62-5.911 3.701-9.557l-6.093-24.425c2.947.182 5.824.607 9.196 1.562 3.346.903 32.666 9.826 32.666 44.216v51.906c0 4.913 3.97 8.888 8.875 8.888h35.501c4.906 0 8.875-3.975 8.875-8.888v-210.819l24.476 6.119c3.649.946 7.462-.564 9.543-3.706 2.08-3.133 1.958-7.239-.295-10.242z" fill="url(#SVGID_2_)"/></g></g></g></svg>