<svg id="Capa_1" enable-background="new 0 0 512 512" height="512" viewBox="0 0 512 512" width="512" xmlns="http://www.w3.org/2000/svg" xmlns:xlink="http://www.w3.org/1999/xlink"><linearGradient id="SVGID_1_" gradientUnits="userSpaceOnUse" x1="256" x2="256" y1="512" y2="0"><stop offset="0" stop-color="#ffbef9"/><stop offset="1" stop-color="#fff1ff"/></linearGradient><linearGradient id="SVGID_2_" gradientUnits="userSpaceOnUse" x1="256" x2="256" y1="407" y2="105"><stop offset="0" stop-color="#ff81ff"/><stop offset="1" stop-color="#a93aff"/></linearGradient><g><g><circle cx="256" cy="256" fill="url(#SVGID_1_)" r="256"/></g><g><g><path d="m358.95 266.568-71.001-53.33c-2.99-2.257-7.09-2.378-10.227-.295s-4.62 5.911-3.701 9.557l6.145 24.634c-7.497.26-15.601 1.033-23.349 3.411-6.492 1.805-12.697 4.227-18.565 7.248v-70.498l24.476 6.119c3.675.946 7.471-.564 9.543-3.706 2.08-3.134 1.959-7.239-.295-10.242l-53.251-71.106c-3.346-4.479-10.851-4.479-14.197 0l-53.251 71.106c-2.253 3.003-2.375 7.109-.295 10.242 2.08 3.142 5.902 4.652 9.543 3.706l24.475-6.12v210.818c0 4.913 3.97 8.888 8.875 8.888h35.501c4.906 0 8.875-3.975 8.875-8.888v-51.906c0-34.39 29.321-43.313 32.762-44.242 3.311-.938 6.171-1.354 9.101-1.536l-6.093 24.425c-.919 3.646.563 7.473 3.701 9.557 3.138 2.074 7.237 1.953 10.227-.295l71.001-53.329c4.737-3.549 4.73-10.674 0-14.218z" fill="url(#SVGID_2_)"/></g></g></g></svg>