<svg id="Capa_1" enable-background="new 0 0 512 512" height="512" viewBox="0 0 512 512" width="512" xmlns="http://www.w3.org/2000/svg" xmlns:xlink="http://www.w3.org/1999/xlink"><linearGradient id="SVGID_1_" gradientUnits="userSpaceOnUse" x1="256" x2="256" y1="512" y2="0"><stop offset="0" stop-color="#ffe59a"/><stop offset="1" stop-color="#ffffd5"/></linearGradient><linearGradient id="SVGID_2_" gradientUnits="userSpaceOnUse" x1="255.996" x2="255.996" y1="407" y2="105"><stop offset="0" stop-color="#ffde00"/><stop offset="1" stop-color="#fd5900"/></linearGradient><g><g><circle cx="256" cy="256" fill="url(#SVGID_1_)" r="256"/></g><g><g><path d="m396.849 105.098-87.936 12.612c-3.721.538-6.705 3.357-7.451 7.043-.737 3.687.919 7.442 4.146 9.376l21.676 12.976-134.236 134.237c-3.469 3.469-3.469 9.09 0 12.56l25.042 25.05c4.015 4.015 9.679 2.881 12.56 0l134.245-134.237 12.976 21.676c1.934 3.227 5.681 4.866 9.376 4.146 3.686-.746 6.505-3.73 7.043-7.451l12.612-87.936c.841-5.96-4.336-10.913-10.053-10.052zm-191.319 226.413-25.041-25.05c-10.391-10.391-10.391-27.288 0-37.679l92.715-92.715h-159.322c-4.909 0-8.882 3.972-8.882 8.882v213.169c0 4.909 3.973 8.882 8.882 8.882h213.169c4.909 0 8.882-3.973 8.882-8.882v-159.324l-92.724 92.717c-10.42 10.421-27.268 10.411-37.679 0z" fill="url(#SVGID_2_)"/></g></g></g></svg>