<svg id="Capa_1" enable-background="new 0 0 512 512" height="512" viewBox="0 0 512 512" width="512" xmlns="http://www.w3.org/2000/svg" xmlns:xlink="http://www.w3.org/1999/xlink"><linearGradient id="SVGID_1_" gradientUnits="userSpaceOnUse" x1="256" x2="256" y1="512" y2="0"><stop offset="0" stop-color="#ffc2cc"/><stop offset="1" stop-color="#fff2f4"/></linearGradient><linearGradient id="SVGID_2_" gradientUnits="userSpaceOnUse" x1="256" x2="256" y1="407" y2="105"><stop offset="0" stop-color="#ffa68d"/><stop offset="1" stop-color="#fd3a84"/></linearGradient><g><g><circle cx="256" cy="256" fill="url(#SVGID_1_)" r="256"/></g><g><g><path d="m204.857 193.414 24.496-6.119v139.712c0 4.913 3.973 8.888 8.882 8.888h35.529c4.91 0 8.882-3.975 8.882-8.888v-139.713l24.496 6.119c3.66.946 7.468-.564 9.55-3.706 2.082-3.134 1.96-7.239-.295-10.242l-53.294-71.106c-3.348-4.479-10.86-4.479-14.208 0l-53.294 71.106c-2.255 3.003-2.377 7.109-.295 10.242 2.074 3.142 5.934 4.653 9.551 3.707zm193.261 124.704h-53.294c-4.909 0-8.882 3.976-8.882 8.888v26.665h-159.883v-26.665c0-4.913-3.973-8.888-8.882-8.888h-53.294c-4.91 0-8.882 3.976-8.882 8.888v71.106c0 4.913 3.973 8.888 8.882 8.888h284.235c4.91 0 8.882-3.975 8.882-8.888v-71.106c0-4.913-3.973-8.888-8.882-8.888z" fill="url(#SVGID_2_)"/></g></g></g></svg>