<svg id="Capa_1" enable-background="new 0 0 512 512" height="512" viewBox="0 0 512 512" width="512" xmlns="http://www.w3.org/2000/svg" xmlns:xlink="http://www.w3.org/1999/xlink"><linearGradient id="SVGID_1_" gradientUnits="userSpaceOnUse" x1="256" x2="256" y1="512" y2="0"><stop offset="0" stop-color="#c3ffe8"/><stop offset=".9973" stop-color="#f0fff4"/></linearGradient><linearGradient id="SVGID_2_" gradientUnits="userSpaceOnUse" x1="256" x2="256" y1="407" y2="105"><stop offset="0" stop-color="#9cffac"/><stop offset="1" stop-color="#00b59c"/></linearGradient><g><g><circle cx="256" cy="256" fill="url(#SVGID_1_)" r="256"/></g><g><g><path d="m248.896 332.385c3.546 4.741 10.667 4.735 14.208 0l53.294-71.059c2.255-3.001 2.377-7.104.295-10.236-2.073-3.14-5.881-4.615-9.55-3.704l-24.496 6.115v-139.62c0-4.91-3.973-8.882-8.882-8.882h-35.529c-4.91 0-8.882 3.973-8.882 8.882v139.62l-24.496-6.115c-3.652-.911-7.468.564-9.55 3.704-2.082 3.131-1.96 7.234.295 10.236zm149.222-14.208h-53.294c-4.909 0-8.882 3.973-8.882 8.882v26.647h-159.883v-26.647c0-4.91-3.973-8.882-8.882-8.882h-53.294c-4.91 0-8.882 3.973-8.882 8.882v71.059c0 4.91 3.973 8.882 8.882 8.882h284.235c4.91 0 8.882-3.973 8.882-8.882v-71.059c0-4.91-3.973-8.882-8.882-8.882z" fill="url(#SVGID_2_)"/></g></g></g></svg>