<svg id="Capa_1" enable-background="new 0 0 512 512" height="512" viewBox="0 0 512 512" width="512" xmlns="http://www.w3.org/2000/svg" xmlns:xlink="http://www.w3.org/1999/xlink"><linearGradient id="SVGID_1_" gradientUnits="userSpaceOnUse" x1="256" x2="256" y1="512" y2="0"><stop offset="0" stop-color="#c3ffe8"/><stop offset=".9973" stop-color="#f0fff4"/></linearGradient><linearGradient id="SVGID_2_" gradientUnits="userSpaceOnUse" x1="256" x2="256" y1="407" y2="105"><stop offset="0" stop-color="#9cffac"/><stop offset="1" stop-color="#00b59c"/></linearGradient><g><g><circle cx="256" cy="256" fill="url(#SVGID_1_)" r="256"/></g><g><g><path d="m398.118 229.353h-157.385l6.115-24.496c.919-3.643-.564-7.468-3.704-9.55-3.123-2.082-7.243-1.96-10.236.295l-71.059 53.294c-4.741 3.546-4.735 10.667 0 14.208l71.059 53.294c2.99 2.247 7.081 2.386 10.236.295 3.14-2.082 4.623-5.907 3.704-9.55l-6.115-24.496h157.384c4.91 0 8.882-3.973 8.882-8.882v-35.529c.001-4.91-3.972-8.883-8.881-8.883zm-134.034 73.488c2.75 10.886-1.718 22.423-11.12 28.659-9.542 6.317-21.829 5.786-30.724-.902l-71.05-53.285c-14.153-10.583-14.235-31.976.017-42.642l71.041-53.277c8.748-6.598 21.131-7.287 30.75-.868 9.368 6.211 13.835 17.748 11.077 28.677l-.599 2.385h36.935v-97.706c0-4.91-3.973-8.882-8.882-8.882h-177.647c-4.91 0-8.882 3.973-8.882 8.882v284.235c0 4.91 3.973 8.882 8.882 8.882h177.647c4.91 0 8.882-3.973 8.882-8.882v-97.706h-36.935z" fill="url(#SVGID_2_)"/></g></g></g></svg>