<svg id="Capa_1" enable-background="new 0 0 512 512" height="512" viewBox="0 0 512 512" width="512" xmlns="http://www.w3.org/2000/svg" xmlns:xlink="http://www.w3.org/1999/xlink"><linearGradient id="SVGID_1_" gradientUnits="userSpaceOnUse" x1="256" x2="256" y1="512" y2="0"><stop offset="0" stop-color="#ffc2cc"/><stop offset="1" stop-color="#fff2f4"/></linearGradient><linearGradient id="SVGID_2_" gradientUnits="userSpaceOnUse" x1="255.998" x2="255.998" y1="407" y2="105"><stop offset="0" stop-color="#ffa68d"/><stop offset="1" stop-color="#fd3a84"/></linearGradient><g><g><circle cx="256" cy="256" fill="url(#SVGID_1_)" r="256"/></g><g><g><path d="m403.444 248.896-71.059-53.294c-2.993-2.255-7.095-2.377-10.236-.295-3.14 2.082-4.623 5.907-3.704 9.55l6.115 24.496h-157.384c-4.91 0-8.882 3.973-8.882 8.882v35.529c0 4.91 3.973 8.882 8.882 8.882h157.384l-6.115 24.496c-.919 3.643.564 7.469 3.704 9.55 3.155 2.092 7.246 1.951 10.236-.295l71.059-53.294c4.74-3.545 4.734-10.665 0-14.207zm-262.915 24.869v-35.529c0-14.694 11.953-26.647 26.647-26.647h133.235v-97.706c0-4.91-3.973-8.882-8.882-8.882h-177.647c-4.91 0-8.882 3.973-8.882 8.882v284.235c0 4.91 3.973 8.882 8.882 8.882h177.647c4.91 0 8.882-3.973 8.882-8.882v-97.706h-133.235c-14.694 0-26.647-11.953-26.647-26.647z" fill="url(#SVGID_2_)"/></g></g></g></svg>