<svg id="Capa_1" enable-background="new 0 0 512 512" height="512" viewBox="0 0 512 512" width="512" xmlns="http://www.w3.org/2000/svg" xmlns:xlink="http://www.w3.org/1999/xlink"><linearGradient id="SVGID_1_" gradientUnits="userSpaceOnUse" x1="256" x2="256" y1="512" y2="0"><stop offset="0" stop-color="#addcff"/><stop offset=".5028" stop-color="#eaf6ff"/><stop offset="1" stop-color="#eaf6ff"/></linearGradient><linearGradient id="SVGID_2_" gradientUnits="userSpaceOnUse" x1="256" x2="256" y1="407" y2="105"><stop offset="0" stop-color="#00c0ff"/><stop offset="1" stop-color="#5558ff"/></linearGradient><g><g><circle cx="256" cy="256" fill="url(#SVGID_1_)" r="256"/></g><g><g><path d="m387.719 179.465-53.4-71.106c-3.355-4.479-10.882-4.479-14.237 0l-53.4 71.106c-2.26 3.003-2.381 7.109-.296 10.242 2.086 3.142 5.919 4.661 9.569 3.706l24.545-6.119v52.123l-44.5 22.221-44.5-22.221v-52.123l24.545 6.119c3.677.955 7.492-.564 9.569-3.706 2.086-3.134 1.964-7.239-.296-10.242l-53.4-71.106c-3.355-4.479-10.882-4.479-14.237 0l-53.4 71.106c-2.26 3.003-2.381 7.109-.296 10.242 2.086 3.142 5.91 4.661 9.569 3.706l24.545-6.119v79.595c0 3.368 1.903 6.44 4.919 7.951l66.281 33.096v90.176c0 4.913 3.981 8.888 8.9 8.888h35.6c4.919 0 8.9-3.975 8.9-8.888v-90.176l66.281-33.096c3.016-1.51 4.919-4.583 4.919-7.951v-79.595l24.545 6.119c3.642.955 7.492-.564 9.569-3.706 2.087-3.133 1.966-7.239-.294-10.242z" fill="url(#SVGID_2_)"/></g></g></g></svg>