<svg id="Capa_1" enable-background="new 0 0 512 512" height="512" viewBox="0 0 512 512" width="512" xmlns="http://www.w3.org/2000/svg" xmlns:xlink="http://www.w3.org/1999/xlink"><linearGradient id="SVGID_1_" gradientUnits="userSpaceOnUse" x1="256" x2="256" y1="512" y2="0"><stop offset="0" stop-color="#ffbef9"/><stop offset="1" stop-color="#fff1ff"/></linearGradient><linearGradient id="SVGID_2_" gradientUnits="userSpaceOnUse" x1="256" x2="256" y1="407" y2="105"><stop offset="0" stop-color="#ff81ff"/><stop offset="1" stop-color="#a93aff"/></linearGradient><g><g><circle cx="256" cy="256" fill="url(#SVGID_1_)" r="256"/></g><g><g><path d="m248.896 243.561c3.546 4.74 10.667 4.735 14.208 0l53.294-71.059c2.255-3.001 2.377-7.104.295-10.236s-5.89-4.641-9.55-3.704l-24.496 6.115v-50.796c0-4.91-3.973-8.882-8.882-8.882h-35.529c-4.91 0-8.882 3.973-8.882 8.882v50.796l-24.496-6.115c-3.617-.937-7.477.573-9.55 3.704-2.082 3.131-1.96 7.234.295 10.236zm14.208 24.878c-3.348-4.476-10.86-4.476-14.208 0l-53.294 71.059c-2.255 3.001-2.377 7.104-.295 10.236 2.073 3.14 5.933 4.623 9.55 3.704l24.496-6.115v50.796c0 4.91 3.973 8.882 8.882 8.882h35.529c4.91 0 8.882-3.973 8.882-8.882v-50.796l24.496 6.115c3.66.919 7.468-.564 9.55-3.704 2.082-3.131 1.96-7.234-.295-10.236zm-19.543-19.543-71.059-53.294c-3.001-2.255-7.104-2.377-10.236-.295-3.14 2.082-4.623 5.907-3.704 9.55l6.115 24.496h-50.796c-4.91 0-8.882 3.973-8.882 8.882v35.529c0 4.91 3.973 8.882 8.882 8.882h50.796l-6.115 24.496c-.919 3.643.564 7.469 3.704 9.55 3.156 2.092 7.246 1.951 10.236-.295l71.059-53.294c4.741-3.545 4.735-10.665 0-14.207zm154.557-19.543h-50.796l6.115-24.496c.919-3.643-.564-7.468-3.704-9.55s-7.226-1.96-10.236.295l-71.059 53.294c-4.741 3.546-4.735 10.667 0 14.208l71.059 53.294c2.99 2.247 7.081 2.386 10.236.295 3.14-2.082 4.623-5.907 3.704-9.55l-6.115-24.496h50.796c4.91 0 8.882-3.973 8.882-8.882v-35.529c0-4.91-3.973-8.883-8.882-8.883z" fill="url(#SVGID_2_)"/></g></g></g></svg>