<svg id="Capa_1" enable-background="new 0 0 512 512" height="512" viewBox="0 0 512 512" width="512" xmlns="http://www.w3.org/2000/svg" xmlns:xlink="http://www.w3.org/1999/xlink"><linearGradient id="SVGID_1_" gradientUnits="userSpaceOnUse" x1="256" x2="256" y1="512" y2="0"><stop offset="0" stop-color="#ffe59a"/><stop offset="1" stop-color="#ffffd5"/></linearGradient><linearGradient id="SVGID_2_" gradientUnits="userSpaceOnUse" x1="256" x2="256" y1="407" y2="105"><stop offset="0" stop-color="#ffde00"/><stop offset="1" stop-color="#fd5900"/></linearGradient><g><g><circle cx="256" cy="256" fill="url(#SVGID_1_)" r="256"/></g><g><g><path d="m296.897 245.635c-3.675-3.469-9.629-3.469-13.305 0l-86.498 81.655-13.755-21.676c-2.04-3.227-6.037-4.892-9.923-4.146-3.905.746-6.891 3.73-7.461 7.451l-13.36 87.934c-.88 5.888 4.486 10.901 10.649 10.053l93.151-12.611c3.942-.538 7.103-3.357 7.893-7.043.781-3.686-.974-7.442-4.392-9.368l-22.961-12.985 86.498-81.654c3.675-3.469 3.675-9.09 0-12.56zm51.858-140.54-93.151 12.612c-3.942.538-7.103 3.357-7.893 7.043-.781 3.686.974 7.442 4.392 9.367l22.961 12.985-86.499 81.655c-3.675 3.469-3.675 9.09 0 12.56l26.536 25.05c3.675 3.47 9.629 3.469 13.304 0l86.499-81.654 13.755 21.676c2.04 3.227 6.055 4.849 9.923 4.146 3.905-.746 6.891-3.729 7.461-7.451l13.36-87.934c.891-5.954-4.569-10.903-10.648-10.055z" fill="url(#SVGID_2_)"/></g></g></g></svg>