<svg id="Capa_1" enable-background="new 0 0 512 512" height="512" viewBox="0 0 512 512" width="512" xmlns="http://www.w3.org/2000/svg" xmlns:xlink="http://www.w3.org/1999/xlink"><linearGradient id="SVGID_1_" gradientUnits="userSpaceOnUse" x1="256" x2="256" y1="512" y2="0"><stop offset="0" stop-color="#addcff"/><stop offset=".5028" stop-color="#eaf6ff"/><stop offset="1" stop-color="#eaf6ff"/></linearGradient><linearGradient id="SVGID_2_" gradientUnits="userSpaceOnUse" x1="256" x2="256" y1="407" y2="105"><stop offset="0" stop-color="#00c0ff"/><stop offset="1" stop-color="#5558ff"/></linearGradient><g><g><circle cx="256" cy="256" fill="url(#SVGID_1_)" r="256"/></g><g><g><path d="m397.946 273.426-21.537-12.922 4.39-4.394c27.29-26.448 33.897-66.224 16.819-101.347-16.949-34.847-52.071-54.122-89.229-48.926-42.669 4.601-69.261 38.075-75.954 67.286-7.185 26.871-5.305 51.843-3.648 73.872 2.188 28.95 5.57 57.785-.336 78.101-3.994 15.874-15.784 26.793-30.982 28.528-17.992 2.486-30.154-8.589-35.562-19.767-5.417-11.187-6.547-27.639 6.659-40.354l4.494-4.489 12.912 21.545c1.915 3.202 5.615 4.834 9.324 4.117 3.666-.742 6.46-3.712 6.995-7.415l12.489-87.501c.825-5.851-4.204-10.858-9.997-10.004l-87.435 12.499c-3.7.535-6.667 3.332-7.409 7-.742 3.669.914 7.406 4.114 9.331l21.537 12.922-4.39 4.394c-27.29 26.448-33.897 66.224-16.819 101.347 17.006 34.97 52.253 54.052 89.229 48.926 42.756-4.609 69.365-38.205 75.911-67.122 8.2-30.518 4.852-58.855 2.467-90.772-1.742-22.797-3.39-44.333 1.561-61.364 3.994-15.874 15.784-26.793 30.982-28.528 17.889-2.521 30.154 8.589 35.562 19.767 5.417 11.187 6.547 27.639-6.659 40.354l-4.494 4.489-12.912-21.545c-1.923-3.202-5.632-4.851-9.324-4.117-3.666.742-6.46 3.712-6.995 7.415l-12.489 87.501c-.819 5.812 4.167 10.861 9.997 10.004l87.435-12.499c3.7-.535 6.667-3.332 7.409-7s-.915-7.407-4.115-9.332z" fill="url(#SVGID_2_)"/></g></g></g></svg>