<svg id="Capa_1" enable-background="new 0 0 512 512" height="512" viewBox="0 0 512 512" width="512" xmlns="http://www.w3.org/2000/svg" xmlns:xlink="http://www.w3.org/1999/xlink"><linearGradient id="SVGID_1_" gradientUnits="userSpaceOnUse" x1="256" x2="256" y1="512" y2="0"><stop offset="0" stop-color="#ffbef9"/><stop offset="1" stop-color="#fff1ff"/></linearGradient><linearGradient id="SVGID_2_" gradientUnits="userSpaceOnUse" x1="256" x2="256" y1="388.5" y2="123.5"><stop offset="0" stop-color="#ff81ff"/><stop offset="1" stop-color="#a93aff"/></linearGradient><g><g><circle cx="256" cy="256" fill="url(#SVGID_1_)" r="256"/></g><g><g><path d="m309.294 159.068h-15.267l6.115-24.525c.919-3.648-.564-7.478-3.704-9.562-3.14-2.075-7.243-1.963-10.235.295l-71.059 53.359c-4.741 3.551-4.735 10.679 0 14.225l71.059 53.359c2.993 2.258 7.095 2.38 10.235.295 3.14-2.084 4.623-5.914 3.704-9.562l-6.115-24.526h15.267c24.487 0 44.412 19.949 44.412 44.466 0 18.793-11.901 35.642-29.614 41.929-3.548 1.259-5.916 4.612-5.916 8.381v36.832c0 5.69 5.243 9.842 10.652 8.711 45.297-9.232 78.172-49.546 78.172-95.852 0-53.941-43.831-97.825-97.706-97.825zm-12.439 160.067-71.059-53.359c-2.993-2.249-7.113-2.379-10.235-.295-3.14 2.084-4.623 5.914-3.704 9.562l6.115 24.525h-15.267c-24.487 0-44.412-19.948-44.412-44.465 0-18.794 11.901-35.642 29.614-41.93 3.548-1.259 5.916-4.612 5.916-8.381v-36.832c0-5.712-5.297-9.87-10.652-8.711-45.296 9.234-78.171 49.548-78.171 95.855 0 53.94 43.831 97.824 97.706 97.824h15.267l-6.115 24.525c-.919 3.647.564 7.478 3.704 9.562 3.155 2.094 7.246 1.954 10.235-.295l71.059-53.359c4.74-3.55 4.734-10.679-.001-14.226z" fill="url(#SVGID_2_)"/></g></g></g></svg>