<svg id="Capa_1" enable-background="new 0 0 512 512" height="512" viewBox="0 0 512 512" width="512" xmlns="http://www.w3.org/2000/svg" xmlns:xlink="http://www.w3.org/1999/xlink"><linearGradient id="SVGID_1_" gradientUnits="userSpaceOnUse" x1="256" x2="256" y1="512" y2="0"><stop offset="0" stop-color="#c3ffe8"/><stop offset=".9973" stop-color="#f0fff4"/></linearGradient><linearGradient id="SVGID_2_" gradientUnits="userSpaceOnUse" x1="256" x2="256" y1="389" y2="123"><stop offset="0" stop-color="#9cffac"/><stop offset="1" stop-color="#00b59c"/></linearGradient><g><g><circle cx="256" cy="256" fill="url(#SVGID_1_)" r="256"/></g><g><g><path d="m324.407 212.296-5.959 23.821c-.92 3.637.564 7.455 3.704 9.533s7.226 1.957 10.236-.294l71.06-53.201c4.741-3.54 4.735-10.648 0-14.183l-71.06-53.201c-3.01-2.251-7.096-2.364-10.236-.294-3.14 2.078-4.624 5.897-3.704 9.534l6.211 24.817c-50.293 3.334-78.589 28.713-93.717 50.265-14.927 21.471-18.048 39.873-19.656 44.248-8.856 28.107-34.584 46.992-64.007 46.992h-33.396c-4.91 0-8.882 3.966-8.882 8.867v35.467c0 4.901 3.973 8.867 8.882 8.867h33.396c39.121 0 75.787-18.98 97.976-50.655 24.786-34.109 16.065-83.502 79.152-90.583zm-210.525-.632h33.396c20.456 0 38.912 9.16 51.321 24.007 7.812-23.256 16.416-36.207 27-48.305-21.578-18.402-49.309-28.903-78.321-28.903h-33.396c-4.91 0-8.882 3.966-8.882 8.867v35.467c0 4.901 3.973 8.867 8.882 8.867zm289.565 108.177-71.06-53.201c-3.01-2.243-7.096-2.373-10.236-.294-3.14 2.078-4.624 5.897-3.704 9.533l5.985 23.899c-16.335-1.663-33.773-7.671-46.275-22.59-6.152 18.246-15.18 33.318-27.536 47.421 19.73 17.032 44.471 26.659 74.037 28.569l-6.211 24.808c-.92 3.637.564 7.455 3.704 9.533 3.154 2.087 7.245 1.949 10.236-.294l71.06-53.201c4.734-3.535 4.741-10.643 0-14.183z" fill="url(#SVGID_2_)"/></g></g></g></svg>