<svg id="Capa_1" enable-background="new 0 0 512 512" height="512" viewBox="0 0 512 512" width="512" xmlns="http://www.w3.org/2000/svg" xmlns:xlink="http://www.w3.org/1999/xlink"><linearGradient id="SVGID_1_" gradientUnits="userSpaceOnUse" x1="256" x2="256" y1="512" y2="0"><stop offset="0" stop-color="#ffe59a"/><stop offset="1" stop-color="#ffffd5"/></linearGradient><linearGradient id="SVGID_2_" gradientUnits="userSpaceOnUse" x1="256" x2="256" y1="371.5" y2="140.5"><stop offset="0" stop-color="#ffde00"/><stop offset="1" stop-color="#fd5900"/></linearGradient><g><g><circle cx="256" cy="256" fill="url(#SVGID_1_)" r="256"/></g><g><g><path d="m309.293 176.032h-121.856l6.115-24.503c.92-3.644-.564-7.47-3.704-9.553-3.14-2.074-7.243-1.952-10.236.295l-71.06 53.31c-4.741 3.547-4.735 10.669 0 14.212l71.06 53.309c2.993 2.256 7.096 2.377 10.236.295 3.14-2.083 4.624-5.909 3.704-9.553l-6.115-24.503h121.856c24.488 0 44.412 19.93 44.412 44.424s-19.925 44.425-44.412 44.425h-35.53c-4.909 0-8.882 3.974-8.882 8.885v35.54c0 4.911 3.973 8.885 8.882 8.885h35.53c53.876 0 97.707-43.843 97.707-97.734s-43.831-97.734-97.707-97.734z" fill="url(#SVGID_2_)"/></g></g></g></svg>