<svg id="Capa_1" enable-background="new 0 0 512 512" height="512" viewBox="0 0 512 512" width="512" xmlns="http://www.w3.org/2000/svg" xmlns:xlink="http://www.w3.org/1999/xlink"><linearGradient id="SVGID_1_" gradientUnits="userSpaceOnUse" x1="256" x2="256" y1="512" y2="0"><stop offset="0" stop-color="#ffc2cc"/><stop offset="1" stop-color="#fff2f4"/></linearGradient><linearGradient id="SVGID_2_" gradientUnits="userSpaceOnUse" x1="256" x2="256" y1="407" y2="105"><stop offset="0" stop-color="#ffa68d"/><stop offset="1" stop-color="#fd3a84"/></linearGradient><g><g><circle cx="256" cy="256" fill="url(#SVGID_1_)" r="256"/></g><g><g><path d="m351.403 228.113c-4.188-10.145-13.592-16.448-24.528-16.448h-77.589l66.255-66.399c3.461-3.468 3.461-9.087 0-12.555l-25.055-25.11c-3.461-3.468-9.067-3.468-12.528 0l-111.625 111.868c-7.735 7.751-9.932 18.867-5.736 29.02 4.188 10.145 13.592 16.448 24.528 16.448h77.589l-62.224 62.359-12.96-21.642c-1.929-3.217-5.641-4.855-9.353-4.136-3.677.746-6.48 3.729-7.017 7.448l-12.528 87.893c-.826 5.871 4.196 10.884 10.027 10.049l87.703-12.555c3.712-.538 6.688-3.347 7.432-7.032s-.909-7.439-4.127-9.373l-21.595-12.98 107.594-107.836c7.736-7.75 9.933-18.866 5.737-29.019z" fill="url(#SVGID_2_)"/></g></g></g></svg>