<svg id="Capa_1" enable-background="new 0 0 512 512" height="512" viewBox="0 0 512 512" width="512" xmlns="http://www.w3.org/2000/svg" xmlns:xlink="http://www.w3.org/1999/xlink"><linearGradient id="SVGID_1_" gradientUnits="userSpaceOnUse" x1="256" x2="256" y1="512" y2="0"><stop offset="0" stop-color="#addcff"/><stop offset=".5028" stop-color="#eaf6ff"/><stop offset="1" stop-color="#eaf6ff"/></linearGradient><linearGradient id="SVGID_2_" gradientUnits="userSpaceOnUse" x1="256.002" x2="256.002" y1="407" y2="105"><stop offset="0" stop-color="#00c0ff"/><stop offset="1" stop-color="#5558ff"/></linearGradient><g><g><circle cx="256" cy="256" fill="url(#SVGID_1_)" r="256"/></g><g><g><path d="m184.735 147.042 21.651-12.985c3.227-1.934 4.884-5.69 4.138-9.376s-3.73-6.497-7.451-7.035l-87.929-12.56c-6.073-.782-10.861 4.33-10.053 10.053l12.56 87.929c.538 3.721 3.348 6.705 7.035 7.451 3.669.668 7.451-.928 9.377-4.138l12.985-21.65 53.693 53.684c3.47 3.47 9.091 3.469 12.56 0l25.12-25.12c3.47-3.47 3.47-9.091 0-12.56zm113.969 91.372c3.47 3.47 9.091 3.469 12.56 0l53.693-53.684 12.985 21.65c1.926 3.209 5.673 4.814 9.377 4.138 3.686-.746 6.497-3.73 7.035-7.451l12.56-87.929c.816-5.788-4.074-10.86-10.053-10.053l-87.929 12.56c-3.721.538-6.705 3.348-7.451 7.035s.911 7.442 4.138 9.376l21.651 12.985-53.684 53.693c-3.47 3.469-3.47 9.09 0 12.56zm108.21 158.441-12.56-87.929c-.538-3.721-3.348-6.705-7.035-7.451-3.721-.746-7.451.919-9.377 4.137l-12.985 21.651-53.693-53.684c-3.469-3.47-9.09-3.47-12.56 0l-25.12 25.12c-3.47 3.47-3.47 9.09 0 12.56l53.684 53.693-21.651 12.985c-3.227 1.935-4.884 5.69-4.138 9.377s3.73 6.497 7.451 7.035l87.929 12.56c5.849.835 10.883-4.181 10.055-10.054zm-193.615-123.276c-3.47-3.47-9.091-3.47-12.56 0l-53.693 53.684-12.985-21.651c-1.926-3.218-5.699-4.866-9.377-4.137-3.687.746-6.497 3.73-7.035 7.451l-12.56 87.929c-.828 5.873 4.207 10.888 10.053 10.053l87.929-12.56c3.721-.538 6.705-3.348 7.451-7.035s-.911-7.442-4.138-9.377l-21.651-12.985 53.684-53.693c3.47-3.47 3.47-9.09 0-12.56z" fill="url(#SVGID_2_)"/></g></g></g></svg>