<svg id="Capa_1" enable-background="new 0 0 512 512" height="512" viewBox="0 0 512 512" width="512" xmlns="http://www.w3.org/2000/svg" xmlns:xlink="http://www.w3.org/1999/xlink"><linearGradient id="SVGID_1_" gradientUnits="userSpaceOnUse" x1="256" x2="256" y1="512" y2="0"><stop offset="0" stop-color="#ffbef9"/><stop offset="1" stop-color="#fff1ff"/></linearGradient><linearGradient id="SVGID_2_" gradientUnits="userSpaceOnUse" x1="256" x2="256" y1="389" y2="123"><stop offset="0" stop-color="#ff81ff"/><stop offset="1" stop-color="#a93aff"/></linearGradient><g><g><circle cx="256" cy="256" fill="url(#SVGID_1_)" r="256"/></g><g><g><path d="m405.222 197.483-53.294-70.933c-3.348-4.468-10.86-4.468-14.208 0l-53.294 70.933c-2.255 2.996-2.377 7.092-.295 10.218s5.925 4.624 9.55 3.697l24.496-6.104v103.906c0 14.668-11.953 26.6-26.647 26.6s-26.647-11.932-26.647-26.6v-106.4c0-44.004-35.859-79.8-79.941-79.8-44.083 0-79.942 35.796-79.942 79.8v177.333c0 4.901 3.973 8.867 8.882 8.867h35.53c4.91 0 8.882-3.966 8.882-8.867v-177.333c0-14.668 11.953-26.6 26.647-26.6s26.647 11.932 26.647 26.6v106.4c0 44.004 35.859 79.8 79.941 79.8s79.941-35.796 79.941-79.8v-103.906l24.496 6.104c3.652.927 7.469-.572 9.55-3.697s1.962-7.222-.294-10.218z" fill="url(#SVGID_2_)"/></g></g></g></svg>