<svg id="Capa_1" enable-background="new 0 0 512 512" height="512" viewBox="0 0 512 512" width="512" xmlns="http://www.w3.org/2000/svg" xmlns:xlink="http://www.w3.org/1999/xlink"><linearGradient id="SVGID_1_" gradientUnits="userSpaceOnUse" x1="256" x2="256" y1="512" y2="0"><stop offset="0" stop-color="#c3ffe8"/><stop offset=".9973" stop-color="#f0fff4"/></linearGradient><linearGradient id="SVGID_2_" gradientUnits="userSpaceOnUse" x1="256" x2="256" y1="407" y2="105"><stop offset="0" stop-color="#9cffac"/><stop offset="1" stop-color="#00b59c"/></linearGradient><g><g><circle cx="256" cy="256" fill="url(#SVGID_1_)" r="256"/></g><g><g><path d="m403.447 248.793-71.061-53.33c-3.001-2.248-7.104-2.378-10.236-.295-3.14 2.083-4.623 5.911-3.704 9.557l6.115 24.512h-41.914v-41.942l24.496 6.12c3.669.929 7.477-.564 9.55-3.707 2.082-3.133 1.96-7.239-.295-10.242l-53.295-71.107c-3.348-4.479-10.86-4.479-14.208 0l-53.295 71.107c-2.255 3.003-2.377 7.109-.295 10.242 2.082 3.142 5.898 4.635 9.55 3.707l24.496-6.12v41.942h-41.914l6.115-24.512c.919-3.646-.564-7.474-3.704-9.557-3.132-2.083-7.243-1.953-10.236.295l-71.061 53.33c-4.741 3.549-4.735 10.674 0 14.218l71.061 53.33c2.992 2.248 7.104 2.369 10.236.295 3.14-2.083 4.623-5.911 3.704-9.557l-6.115-24.512h41.914v41.941l-24.496-6.119c-3.652-.946-7.469.573-9.55 3.706-2.082 3.134-1.96 7.239.295 10.243l53.295 71.106c3.546 4.744 10.667 4.738 14.208 0l53.295-71.106c2.255-3.003 2.377-7.109.295-10.243-2.073-3.133-5.881-4.652-9.55-3.706l-24.496 6.119v-41.941h41.914l-6.115 24.512c-.919 3.646.564 7.474 3.704 9.557 3.132 2.074 7.234 1.953 10.236-.295l71.061-53.33c4.741-3.549 4.734-10.674 0-14.218z" fill="url(#SVGID_2_)"/></g></g></g></svg>