<svg id="Capa_1" enable-background="new 0 0 512 512" height="512" viewBox="0 0 512 512" width="512" xmlns="http://www.w3.org/2000/svg" xmlns:xlink="http://www.w3.org/1999/xlink"><linearGradient id="SVGID_1_" gradientUnits="userSpaceOnUse" x1="256" x2="256" y1="512" y2="0"><stop offset="0" stop-color="#c3ffe8"/><stop offset=".9973" stop-color="#f0fff4"/></linearGradient><linearGradient id="SVGID_2_" gradientUnits="userSpaceOnUse" x1="256.002" x2="256.002" y1="407" y2="105"><stop offset="0" stop-color="#9cffac"/><stop offset="1" stop-color="#00b59c"/></linearGradient><g><g><circle cx="256" cy="256" fill="url(#SVGID_1_)" r="256"/></g><g><g><path d="m144.086 174.278 71.06 53.294c2.984 2.247 7.104 2.368 10.236.295 3.14-2.082 4.623-5.907 3.704-9.55l-6.115-24.496h15.267c24.487 0 44.412 19.925 44.412 44.413 0 18.771-11.901 35.599-29.614 41.879-3.548 1.258-5.916 4.606-5.916 8.371v36.788c0 5.674 5.233 9.833 10.652 8.7 45.297-9.221 78.173-49.487 78.173-95.738 0-53.876-43.831-97.707-97.707-97.707h-15.268l6.115-24.497c.919-3.643-.564-7.468-3.704-9.55-3.131-2.082-7.252-1.952-10.236.295l-71.06 53.295c-4.739 3.546-4.733 10.666.001 14.208zm254.035 143.897h-53.295c-4.91 0-8.883 3.973-8.883 8.882v26.647h-159.883v-26.647c0-4.909-3.973-8.882-8.882-8.882h-53.295c-4.91 0-8.882 3.973-8.882 8.882v71.06c0 4.91 3.973 8.882 8.882 8.882h284.239c4.91 0 8.882-3.973 8.882-8.882v-71.06c0-4.909-3.973-8.882-8.883-8.882z" fill="url(#SVGID_2_)"/></g></g></g></svg>