<svg id="Capa_1" enable-background="new 0 0 512 512" height="512" viewBox="0 0 512 512" width="512" xmlns="http://www.w3.org/2000/svg" xmlns:xlink="http://www.w3.org/1999/xlink"><linearGradient id="SVGID_1_" gradientUnits="userSpaceOnUse" x1="256" x2="256" y1="512" y2="0"><stop offset="0" stop-color="#ffbef9"/><stop offset="1" stop-color="#fff1ff"/></linearGradient><linearGradient id="SVGID_2_" gradientUnits="userSpaceOnUse" x1="256.002" x2="256.002" y1="407" y2="105"><stop offset="0" stop-color="#ff81ff"/><stop offset="1" stop-color="#a93aff"/></linearGradient><g><g><circle cx="256" cy="256" fill="url(#SVGID_1_)" r="256"/></g><g><g><path d="m254.232 333.971c5.41 1.13 10.652-3.019 10.652-8.7v-36.788c0-3.765-2.368-7.113-5.916-8.371-17.713-6.28-29.614-23.108-29.614-41.879 0-24.488 19.925-44.413 44.412-44.413h15.267l-6.115 24.496c-.919 3.644.564 7.469 3.704 9.55 3.14 2.073 7.243 1.952 10.236-.295l71.06-53.294c4.741-3.546 4.735-10.667 0-14.208l-71.06-53.295c-2.993-2.247-7.096-2.376-10.236-.295-3.14 2.082-4.623 5.907-3.704 9.55l6.115 24.497h-15.267c-53.876 0-97.707 43.831-97.707 97.707.001 46.251 32.876 86.517 78.173 95.738zm143.889-15.796h-53.295c-4.91 0-8.883 3.973-8.883 8.882v26.647h-159.883v-26.647c0-4.909-3.973-8.882-8.882-8.882h-53.295c-4.91 0-8.882 3.973-8.882 8.882v71.06c0 4.91 3.973 8.882 8.882 8.882h284.239c4.91 0 8.882-3.973 8.882-8.882v-71.06c0-4.909-3.973-8.882-8.883-8.882z" fill="url(#SVGID_2_)"/></g></g></g></svg>