<svg id="Capa_1" enable-background="new 0 0 512 512" height="512" viewBox="0 0 512 512" width="512" xmlns="http://www.w3.org/2000/svg" xmlns:xlink="http://www.w3.org/1999/xlink"><linearGradient id="SVGID_1_" gradientUnits="userSpaceOnUse" x1="256" x2="256" y1="512" y2="0"><stop offset="0" stop-color="#ffc2cc"/><stop offset="1" stop-color="#fff2f4"/></linearGradient><linearGradient id="SVGID_2_" gradientUnits="userSpaceOnUse" x1="256" x2="256" y1="407" y2="105"><stop offset="0" stop-color="#ffa68d"/><stop offset="1" stop-color="#fd3a84"/></linearGradient><g><g><circle cx="256" cy="256" fill="url(#SVGID_1_)" r="256"/></g><g><g><path d="m113.882 105c-4.91 0-8.882 3.973-8.882 8.882v284.235c0 4.91 3.973 8.882 8.882 8.882 4.91 0 8.882-3.973 8.882-8.882v-284.235c.001-4.909-3.972-8.882-8.882-8.882zm284.236 0c-4.91 0-8.882 3.973-8.882 8.882v284.235c0 4.91 3.973 8.882 8.882 8.882 4.91 0 8.882-3.973 8.882-8.882v-284.235c0-4.909-3.973-8.882-8.882-8.882zm-30.204 143.896-71.059-53.294c-2.993-2.255-7.095-2.376-10.235-.295-3.14 2.082-4.623 5.907-3.704 9.55l6.115 24.496h-66.063l6.115-24.496c.919-3.643-.564-7.468-3.704-9.55s-7.243-1.96-10.235.295l-71.059 53.294c-4.741 3.546-4.735 10.667 0 14.208l71.059 53.294c2.993 2.255 7.095 2.368 10.235.295 3.14-2.082 4.623-5.907 3.704-9.55l-6.115-24.496h66.063l-6.115 24.496c-.919 3.643.564 7.468 3.704 9.55 3.155 2.091 7.246 1.951 10.235-.295l71.059-53.294c4.741-3.546 4.735-10.666 0-14.208z" fill="url(#SVGID_2_)"/></g></g></g></svg>