<svg id="Capa_1" enable-background="new 0 0 512 512" height="512" viewBox="0 0 512 512" width="512" xmlns="http://www.w3.org/2000/svg" xmlns:xlink="http://www.w3.org/1999/xlink"><linearGradient id="SVGID_1_" gradientUnits="userSpaceOnUse" x1="256" x2="256" y1="512" y2="0"><stop offset="0" stop-color="#ffe59a"/><stop offset="1" stop-color="#ffffd5"/></linearGradient><linearGradient id="SVGID_2_" gradientUnits="userSpaceOnUse" x1="256" x2="256" y1="353.5" y2="158.5"><stop offset="0" stop-color="#ffde00"/><stop offset="1" stop-color="#fd5900"/></linearGradient><g><g><circle cx="256" cy="256" fill="url(#SVGID_1_)" r="256"/></g><g><g><path d="m398.118 229.409h-33.031l6.115-24.444c.919-3.636-.564-7.453-3.704-9.53-3.131-2.077-7.234-1.956-10.236.294l-71.059 53.182c-4.741 3.539-4.735 10.644 0 14.179l71.059 53.182c2.99 2.242 7.081 2.381 10.236.294 3.14-2.078 4.623-5.895 3.704-9.53l-6.115-24.444h33.031c4.91 0 8.882-3.964 8.882-8.864v-35.455c0-4.899-3.973-8.864-8.882-8.864zm-172.322 19.502-71.059-53.182c-2.993-2.25-7.096-2.372-10.236-.294s-4.623 5.895-3.704 9.53l6.115 24.444h-33.031c-4.91 0-8.882 3.964-8.882 8.863v35.455c0 4.899 3.973 8.864 8.882 8.864h33.031l-6.115 24.444c-.919 3.635.564 7.453 3.704 9.53 3.156 2.087 7.246 1.947 10.236-.294l71.059-53.182c4.741-3.539 4.735-10.644 0-14.178zm30.204-90.411c-4.91 0-8.882 3.964-8.882 8.864v177.272c0 4.899 3.973 8.864 8.882 8.864s8.882-3.964 8.882-8.864v-177.272c0-4.9-3.972-8.864-8.882-8.864z" fill="url(#SVGID_2_)"/></g></g></g></svg>