<svg id="Capa_1" enable-background="new 0 0 512 512" height="512" viewBox="0 0 512 512" width="512" xmlns="http://www.w3.org/2000/svg" xmlns:xlink="http://www.w3.org/1999/xlink"><linearGradient id="SVGID_1_" gradientUnits="userSpaceOnUse" x1="256" x2="256" y1="512" y2="0"><stop offset="0" stop-color="#addcff"/><stop offset=".5028" stop-color="#eaf6ff"/><stop offset="1" stop-color="#eaf6ff"/></linearGradient><linearGradient id="SVGID_2_" gradientUnits="userSpaceOnUse" x1="256" x2="256" y1="353.5" y2="158.5"><stop offset="0" stop-color="#00c0ff"/><stop offset="1" stop-color="#5558ff"/></linearGradient><g><g><circle cx="256" cy="256" fill="url(#SVGID_1_)" r="256"/></g><g><g><path d="m403.447 248.911-71.061-53.182c-3.001-2.25-7.104-2.372-10.236-.294-3.14 2.078-4.623 5.895-3.704 9.53l6.115 24.444h-33.031c-4.91 0-8.883 3.964-8.883 8.863v35.455c0 4.899 3.973 8.864 8.883 8.864h33.032l-6.115 24.444c-.919 3.635.564 7.453 3.704 9.53 3.156 2.087 7.246 1.947 10.236-.294l71.061-53.182c4.74-3.539 4.733-10.644-.001-14.178zm-182.977-19.502h-33.032l6.115-24.444c.919-3.636-.564-7.453-3.704-9.53-3.132-2.077-7.243-1.956-10.236.294l-71.061 53.182c-4.741 3.539-4.735 10.644 0 14.179l71.061 53.182c2.99 2.242 7.081 2.381 10.236.294 3.14-2.078 4.623-5.895 3.704-9.53l-6.115-24.444h33.032c4.91 0 8.883-3.964 8.883-8.864v-35.455c-.001-4.899-3.974-8.864-8.883-8.864zm35.53-70.909c-4.91 0-8.883 3.964-8.883 8.864v177.272c0 4.899 3.973 8.864 8.883 8.864s8.883-3.964 8.883-8.864v-177.272c0-4.9-3.973-8.864-8.883-8.864z" fill="url(#SVGID_2_)"/></g></g></g></svg>