<svg id="Capa_1" enable-background="new 0 0 512 512" height="512" viewBox="0 0 512 512" width="512" xmlns="http://www.w3.org/2000/svg" xmlns:xlink="http://www.w3.org/1999/xlink"><linearGradient id="SVGID_1_" gradientUnits="userSpaceOnUse" x1="256" x2="256" y1="512" y2="0"><stop offset="0" stop-color="#addcff"/><stop offset=".5028" stop-color="#eaf6ff"/><stop offset="1" stop-color="#eaf6ff"/></linearGradient><linearGradient id="SVGID_2_" gradientUnits="userSpaceOnUse" x1="256" x2="256" y1="389" y2="123"><stop offset="0" stop-color="#00c0ff"/><stop offset="1" stop-color="#5558ff"/></linearGradient><g><g><circle cx="256" cy="256" fill="url(#SVGID_1_)" r="256"/></g><g><g><path d="m403.447 319.79-71.06-53.24c-2.993-2.244-7.096-2.374-10.236-.294s-4.623 5.901-3.704 9.541l6.115 24.471h-41.914v-95.111l24.496 6.109c3.635.945 7.477-.563 9.55-3.7 2.082-3.128 1.96-7.227-.295-10.225l-53.295-70.986c-3.348-4.471-10.86-4.471-14.209 0l-53.295 70.985c-2.255 2.999-2.377 7.097-.295 10.225 2.082 3.137 5.907 4.645 9.55 3.7l24.496-6.109v95.111h-41.914l6.115-24.471c.919-3.639-.564-7.461-3.704-9.541-3.131-2.08-7.234-1.95-10.236.294l-71.06 53.24c-4.741 3.542-4.735 10.655 0 14.194l71.06 53.24c3.001 2.244 7.104 2.374 10.236.294 3.14-2.08 4.623-5.901 3.704-9.541l-6.115-24.471h137.124l-6.115 24.471c-.919 3.64.564 7.461 3.704 9.541 3.155 2.089 7.246 1.95 10.236-.294l71.06-53.24c4.742-3.542 4.735-10.655.001-14.193z" fill="url(#SVGID_2_)"/></g></g></g></svg>