<svg id="Capa_1" enable-background="new 0 0 512 512" height="512" viewBox="0 0 512 512" width="512" xmlns="http://www.w3.org/2000/svg" xmlns:xlink="http://www.w3.org/1999/xlink"><linearGradient id="SVGID_1_" gradientUnits="userSpaceOnUse" x1="256" x2="256" y1="512" y2="0"><stop offset="0" stop-color="#ffe59a"/><stop offset="1" stop-color="#ffffd5"/></linearGradient><linearGradient id="SVGID_2_" gradientUnits="userSpaceOnUse" x1="256" x2="256" y1="407" y2="105"><stop offset="0" stop-color="#ffde00"/><stop offset="1" stop-color="#fd5900"/></linearGradient><g><g><circle cx="256" cy="256" fill="url(#SVGID_1_)" r="256"/></g><g><g><path d="m369.722 179.465-53.308-71.105c-3.349-4.479-10.863-4.479-14.212 0l-53.308 71.105c-2.256 3.003-2.377 7.109-.295 10.242 2.082 3.142 5.9 4.652 9.553 3.707l23.851-5.963c-3.575 31.048-21.786 53.234-50.245 60.36-53.733 13.445-91.258 61.532-91.258 116.936v33.366c0 4.913 3.974 8.888 8.885 8.888h35.539c4.911 0 8.885-3.976 8.885-8.888v-33.366c0-30.892 20.927-57.704 50.896-65.203 14.62-3.663 85.202-25.823 90.894-112.344l24.867 6.215c3.67.946 7.479-.564 9.553-3.707 2.08-3.134 1.959-7.24-.297-10.243z" fill="url(#SVGID_2_)"/></g></g></g></svg>