<svg id="Capa_1" enable-background="new 0 0 512 512" height="512" viewBox="0 0 512 512" width="512" xmlns="http://www.w3.org/2000/svg" xmlns:xlink="http://www.w3.org/1999/xlink"><linearGradient id="SVGID_1_" gradientUnits="userSpaceOnUse" x1="256" x2="256" y1="512" y2="0"><stop offset="0" stop-color="#c3ffe8"/><stop offset=".9973" stop-color="#f0fff4"/></linearGradient><linearGradient id="SVGID_2_" gradientUnits="userSpaceOnUse" x1="256" x2="256" y1="407" y2="105"><stop offset="0" stop-color="#9cffac"/><stop offset="1" stop-color="#00b59c"/></linearGradient><g><g><circle cx="256" cy="256" fill="url(#SVGID_1_)" r="256"/></g><g><g><path d="m280.233 247.811c-28.45-7.126-46.662-29.312-50.236-60.36l23.851 5.963c3.67.946 7.479-.564 9.553-3.707 2.082-3.133 1.961-7.239-.295-10.242l-53.308-71.105c-3.349-4.479-10.863-4.479-14.212 0l-53.308 71.105c-2.256 3.003-2.377 7.109-.295 10.242 2.082 3.142 5.9 4.652 9.553 3.707l24.867-6.215c5.692 86.521 76.274 108.681 90.903 112.344 29.96 7.499 50.887 34.312 50.887 65.203v33.366c0 4.913 3.974 8.888 8.885 8.888h35.539c4.911 0 8.885-3.976 8.885-8.888v-33.366c-.002-55.404-37.527-103.49-91.269-116.935z" fill="url(#SVGID_2_)"/></g></g></g></svg>