<svg id="Capa_1" enable-background="new 0 0 512 512" height="512" viewBox="0 0 512 512" width="512" xmlns="http://www.w3.org/2000/svg" xmlns:xlink="http://www.w3.org/1999/xlink"><linearGradient id="SVGID_1_" gradientUnits="userSpaceOnUse" x1="256" x2="256" y1="512" y2="0"><stop offset="0" stop-color="#ffbef9"/><stop offset="1" stop-color="#fff1ff"/></linearGradient><linearGradient id="SVGID_2_" gradientUnits="userSpaceOnUse" x1="256" x2="256" y1="407" y2="105"><stop offset="0" stop-color="#ff81ff"/><stop offset="1" stop-color="#a93aff"/></linearGradient><g><g><circle cx="256" cy="256" fill="url(#SVGID_1_)" r="256"/></g><g><g><path d="m403.447 160.072-71.06-53.294c-2.984-2.255-7.104-2.377-10.236-.295-3.14 2.082-4.624 5.907-3.704 9.551l6.115 24.496h-175.15c-4.91 0-8.882 3.973-8.882 8.882v175.151l-24.496-6.116c-3.652-.928-7.469.573-9.551 3.704s-1.96 7.234.295 10.236l53.295 71.06c3.546 4.741 10.667 4.735 14.208 0l53.295-71.06c2.255-3.001 2.377-7.104.295-10.236-2.073-3.131-5.881-4.632-9.55-3.704l-24.496 6.116v-130.739h130.739l-6.115 24.496c-.92 3.643.564 7.468 3.704 9.55 3.131 2.073 7.252 1.96 10.236-.295l71.06-53.295c4.739-3.546 4.732-10.666-.002-14.208z" fill="url(#SVGID_2_)"/></g></g></g></svg>