<svg id="Capa_1" enable-background="new 0 0 512 512" height="512" viewBox="0 0 512 512" width="512" xmlns="http://www.w3.org/2000/svg" xmlns:xlink="http://www.w3.org/1999/xlink"><linearGradient id="SVGID_1_" gradientUnits="userSpaceOnUse" x1="256" x2="256" y1="512" y2="0"><stop offset="0" stop-color="#ffc2cc"/><stop offset="1" stop-color="#fff2f4"/></linearGradient><linearGradient id="SVGID_2_" gradientUnits="userSpaceOnUse" x1="256" x2="256" y1="407" y2="105"><stop offset="0" stop-color="#ffa68d"/><stop offset="1" stop-color="#fd3a84"/></linearGradient><g><g><circle cx="256" cy="256" fill="url(#SVGID_1_)" r="256"/></g><g><g><path d="m293.681 229.622c-3.617-.911-7.477.572-9.55 3.704-2.082 3.131-1.96 7.234.295 10.235l53.294 71.059c3.542 4.734 10.662 4.741 14.208 0l53.294-71.059c2.255-3.001 2.377-7.104.295-10.235s-5.89-4.615-9.55-3.704l-24.496 6.115v-121.855c0-4.91-3.973-8.882-8.882-8.882h-248.707c-4.91 0-8.882 3.973-8.882 8.882v284.235c0 4.91 3.973 8.882 8.882 8.882h248.706c4.909 0 8.882-3.973 8.882-8.882v-35.529c0-4.91-3.973-8.882-8.882-8.882h-204.294v-195.412h159.882v77.443z" fill="url(#SVGID_2_)"/></g></g></g></svg>