<svg id="Capa_1" enable-background="new 0 0 512 512" height="512" viewBox="0 0 512 512" width="512" xmlns="http://www.w3.org/2000/svg" xmlns:xlink="http://www.w3.org/1999/xlink"><linearGradient id="SVGID_1_" gradientUnits="userSpaceOnUse" x1="256" x2="256" y1="512" y2="0"><stop offset="0" stop-color="#ffc2cc"/><stop offset="1" stop-color="#fff2f4"/></linearGradient><linearGradient id="SVGID_2_" gradientUnits="userSpaceOnUse" x1="256" x2="256" y1="407" y2="105"><stop offset="0" stop-color="#ffa68d"/><stop offset="1" stop-color="#fd3a84"/></linearGradient><g><g><circle cx="256" cy="256" fill="url(#SVGID_1_)" r="256"/></g><g><g><path d="m398.118 353.671c-63.668 0-115.471-51.837-115.471-115.547v-50.83l24.496 6.12c3.634.955 7.477-.564 9.55-3.707 2.082-3.133 1.96-7.239-.295-10.242l-53.294-71.105c-3.348-4.479-10.86-4.479-14.208 0l-53.294 71.105c-2.255 3.003-2.377 7.109-.295 10.242 2.082 3.142 5.907 4.661 9.55 3.707l24.496-6.12v50.83c0 63.71-51.802 115.547-115.471 115.547-4.91 0-8.882 3.975-8.882 8.888v35.553c0 4.913 3.973 8.888 8.882 8.888 58.056 0 111.186-29.459 142.118-77.85 30.932 48.391 84.061 77.85 142.118 77.85 4.91 0 8.882-3.976 8.882-8.888v-35.553c0-4.913-3.973-8.888-8.882-8.888z" fill="url(#SVGID_2_)"/></g></g></g></svg>