<svg id="Capa_1" enable-background="new 0 0 512 512" height="512" viewBox="0 0 512 512" width="512" xmlns="http://www.w3.org/2000/svg" xmlns:xlink="http://www.w3.org/1999/xlink"><linearGradient id="SVGID_1_" gradientUnits="userSpaceOnUse" x1="256" x2="256" y1="512" y2="0"><stop offset="0" stop-color="#ffbef9"/><stop offset="1" stop-color="#fff1ff"/></linearGradient><linearGradient id="SVGID_2_" gradientUnits="userSpaceOnUse" x1="256" x2="256" y1="405.5" y2="106.5"><stop offset="0" stop-color="#ff81ff"/><stop offset="1" stop-color="#a93aff"/></linearGradient><g><g><circle cx="256" cy="256" fill="url(#SVGID_1_)" r="256"/></g><g><g><path d="m256 106.5c-83.263 0-151 67.624-151 150.748 0 74.034 53.777 135.634 124.353 148.252v-145.758l-24.496 6.105c-3.634.935-7.468-.554-9.55-3.698-2.082-3.126-1.96-7.222.295-10.218l53.294-70.94c3.348-4.468 10.86-4.468 14.208 0l53.294 70.94c2.255 2.996 2.377 7.092.295 10.218-2.082 3.144-5.907 4.633-9.55 3.698l-24.496-6.105v145.758c70.576-12.618 124.353-74.219 124.353-148.252 0-83.124-67.737-150.748-151-150.748z" fill="url(#SVGID_2_)"/></g></g></g></svg>