<svg id="Capa_1" enable-background="new 0 0 512 512" height="512" viewBox="0 0 512 512" width="512" xmlns="http://www.w3.org/2000/svg" xmlns:xlink="http://www.w3.org/1999/xlink"><linearGradient id="SVGID_1_" gradientUnits="userSpaceOnUse" x1="256" x2="256" y1="512" y2="0"><stop offset="0" stop-color="#addcff"/><stop offset=".5028" stop-color="#eaf6ff"/><stop offset="1" stop-color="#eaf6ff"/></linearGradient><linearGradient id="SVGID_2_" gradientUnits="userSpaceOnUse" x1="255.999" x2="255.999" y1="407" y2="105"><stop offset="0" stop-color="#00c0ff"/><stop offset="1" stop-color="#5558ff"/></linearGradient><g><g><circle cx="256" cy="256" fill="url(#SVGID_1_)" r="256"/></g><g><g><path d="m174.28 323.502 53.294-71.059c2.255-3.001 2.377-7.104.295-10.235-2.082-3.14-5.89-4.606-9.55-3.704l-23.613 5.904c4.36-51.871 33.661-86.114 61.259-86.114h.095c16.177 0 32.32 11.025 44.29 30.247 3.143 5.068 10.698 5.887 14.642.642l22.466-29.943c2.377-3.175 2.368-7.529-.017-10.687-21.477-28.434-49.634-43.492-81.459-43.553-67.828.148-110.28 69.345-114.953 139.753l-24.996-6.249c-3.617-.902-7.46.564-9.55 3.704-2.082 3.131-1.96 7.234.295 10.235l53.294 71.059c3.542 4.735 10.662 4.741 14.208 0zm230.941-63.945-53.294-71.059c-3.348-4.476-10.86-4.476-14.208 0l-53.294 71.059c-2.255 3.001-2.377 7.104-.295 10.235 2.082 3.148 5.916 4.641 9.55 3.704l23.984-5.994c-4.268 52.063-33.977 86.204-61.63 86.204-.035-.009-.078-.009-.095 0-16.177 0-32.32-11.025-44.29-30.247-3.185-5.135-10.763-5.801-14.642-.642l-22.467 29.943c-2.377 3.175-2.368 7.529.017 10.687 21.477 28.434 49.634 43.493 81.459 43.553 67.823-.147 110.353-69.333 115.028-139.732l24.921 6.228c3.643.937 7.469-.555 9.55-3.704 2.083-3.131 1.962-7.234-.294-10.235z" fill="url(#SVGID_2_)"/></g></g></g></svg>