<svg id="Capa_1" enable-background="new 0 0 512 512" height="512" viewBox="0 0 512 512" width="512" xmlns="http://www.w3.org/2000/svg" xmlns:xlink="http://www.w3.org/1999/xlink"><linearGradient id="SVGID_1_" gradientUnits="userSpaceOnUse" x1="256" x2="256" y1="512" y2="0"><stop offset="0" stop-color="#ffe59a"/><stop offset="1" stop-color="#ffffd5"/></linearGradient><linearGradient id="SVGID_2_" gradientUnits="userSpaceOnUse" x1="256" x2="256" y1="366.5" y2="145.5"><stop offset="0" stop-color="#ffde00"/><stop offset="1" stop-color="#fd5900"/></linearGradient><g><g><circle cx="256" cy="256" fill="url(#SVGID_1_)" r="256"/></g><g><g><path d="m396.862 145.599-87.892 12.586c-3.719.539-6.702 3.355-7.448 7.05-.746 3.694.91 7.458 4.136 9.396l21.638 13.015-106.746 107.022-75.276-75.474c-3.469-3.477-9.089-3.475-12.555 0l-25.119 25.182c-3.468 3.477-3.466 9.111 0 12.586l106.672 106.931c3.468 3.477 9.086 3.477 12.555 0l138.142-138.479 12.983 21.692c1.841 3.08 5.46 4.896 9.373 4.146 3.685-.748 6.494-3.738 7.032-7.467l12.555-88.112c.821-5.839-4.187-10.952-10.05-10.074z" fill="url(#SVGID_2_)"/></g></g></g></svg>