<svg id="Capa_1" enable-background="new 0 0 512 512" height="512" viewBox="0 0 512 512" width="512" xmlns="http://www.w3.org/2000/svg" xmlns:xlink="http://www.w3.org/1999/xlink"><linearGradient id="SVGID_1_" gradientUnits="userSpaceOnUse" x1="256" x2="256" y1="512" y2="0"><stop offset="0" stop-color="#c3ffe8"/><stop offset=".9973" stop-color="#f0fff4"/></linearGradient><linearGradient id="SVGID_2_" gradientUnits="userSpaceOnUse" x1="256" x2="256" y1="407" y2="105"><stop offset="0" stop-color="#9cffac"/><stop offset="1" stop-color="#00b59c"/></linearGradient><g><g><circle cx="256" cy="256" fill="url(#SVGID_1_)" r="256"/></g><g><g><path d="m264.882 182.443-24.496-6.115c-3.635-.928-7.469.573-9.55 3.704s-1.96 7.234.295 10.235l53.294 71.059c3.546 4.74 10.667 4.734 14.208 0l53.294-71.059c2.255-3.001 2.377-7.104.295-10.235-2.073-3.131-5.916-4.632-9.55-3.704l-24.496 6.115v-68.561c0-4.91-3.973-8.882-8.882-8.882h-195.412c-4.91 0-8.882 3.973-8.882 8.882v142.118c0 4.91 3.973 8.882 8.882 8.882h35.529c4.91 0 8.883-3.973 8.883-8.882v-97.706h106.588zm133.236 64.675h-35.529c-4.91 0-8.883 3.973-8.883 8.882v97.706h-106.588v-24.149l24.496 6.115c3.652.963 7.469-.564 9.55-3.704 2.082-3.131 1.96-7.234-.295-10.235l-53.294-71.059c-3.348-4.476-10.86-4.476-14.208 0l-53.294 71.059c-2.255 3.001-2.377 7.104-.295 10.235 2.091 3.14 5.933 4.667 9.55 3.704l24.496-6.115v68.561c0 4.91 3.973 8.882 8.882 8.882h195.412c4.91 0 8.882-3.973 8.882-8.882v-142.118c0-4.91-3.973-8.882-8.882-8.882z" fill="url(#SVGID_2_)"/></g></g></g></svg>